<svg aria-hidden="true" style="position: absolute; width: 0; height: 0; overflow: hidden;" version="1.1" xmlns="http://www.w3.org/2000/svg" xmlns:xlink="http://www.w3.org/1999/xlink">
	<defs>
		<symbol id="arrowdown" viewBox="0 0 32 32">
			<path stroke-linejoin="round" stroke-linecap="round" stroke-miterlimit="10" stroke-width="1.5" d="M26.56 11.934l-8.693 8.693c-1.027 1.027-2.707 1.027-3.733 0l-8.693-8.693">
			</path>
		</symbol>
		<symbol id="arrow" viewBox="0 0 32 32">
			<path stroke-linejoin="round" stroke-linecap="round" stroke-miterlimit="10" stroke-width="2" d="M19.44 7.907l8.093 8.093-8.093 8.093M4.867 16h22.44">
			</path>
		</symbol>
		<symbol id="arrow-repeat" viewBox="0 0 32 32">
			<path stroke-linecap="round" stroke-linejoin="round" stroke-miterlimit="10" stroke-width="2" d="M4.773 6.88h18.453c2.213 0 4 1.787 4 4v4.427" />
			<path stroke-linecap="round" stroke-linejoin="round" stroke-miterlimit="10" stroke-width="2" d="M8.987 2.667 4.774 6.88l4.213 4.213m18.24 14.027H8.774c-2.213 0-4-1.787-4-4v-4.427" />
			<path stroke-linecap="round" stroke-linejoin="round" stroke-miterlimit="10" stroke-width="2" d="m23.013 29.333 4.213-4.213-4.213-4.213" />
		</symbol>
		<symbol id="baby" viewBox="0 0 31 32">
			<path d="M12.733 0.443c0 0.25 0.133 0.372 0.297 0.272s0.221-0.306 0.129-0.455c-0.25-0.405-0.425-0.33-0.425 0.183zM9.38 2.327c0.101 0.163 0.306 0.221 0.455 0.129 0.405-0.25 0.33-0.425-0.183-0.425-0.25 0-0.372 0.133-0.272 0.297zM12.733 3.799c0 0.17 0.131 0.228 0.292 0.129s0.292-0.238 0.292-0.309c0-0.071-0.131-0.129-0.292-0.129s-0.292 0.139-0.292 0.309zM13.755 4.806c-3.611 0.801-5.686 1.873-7.826 4.044-1.789 1.815-3.051 4.37-3.461 7.007-0.253 1.627-0.477 2.263-0.839 2.378-0.271 0.086-0.731 0.419-1.021 0.739-0.504 0.557-0.505 0.655-0.026 2.173 0.604 1.916 1.118 2.483 2.249 2.483 0.489 0 0.855 0.156 0.856 0.365 0.004 1.052 3.612 5.283 5.173 6.064 0.445 0.223 1.006 0.565 1.247 0.76s1.521 0.574 2.846 0.842c2.248 0.454 2.568 0.454 4.816 0 1.324-0.268 2.605-0.646 2.846-0.842s0.802-0.537 1.247-0.76c1.561-0.781 5.169-5.011 5.173-6.064 0.001-0.208 0.367-0.365 0.856-0.365 1.131 0 1.645-0.567 2.249-2.483 0.479-1.518 0.477-1.616-0.026-2.173-0.29-0.32-0.75-0.653-1.021-0.739-0.361-0.115-0.585-0.746-0.834-2.348-0.838-5.392-4.566-9.366-10.116-10.784-0.959-0.245-1.944-0.499-2.189-0.564s-1.234 0.056-2.197 0.269zM17.993 5.826c5.023 0.953 8.943 5.296 9.742 10.791 0.264 1.815 0.408 2.188 0.812 2.11 0.685-0.133 1.144 0.875 0.925 2.032-0.304 1.601-0.625 1.993-1.645 2.006-0.842 0.011-1.012 0.169-1.648 1.532-0.925 1.981-3.794 4.816-5.98 5.909-1.591 0.796-1.975 0.865-4.839 0.865s-3.248-0.069-4.839-0.865c-2.186-1.093-5.055-3.929-5.98-5.909-0.637-1.364-0.807-1.521-1.648-1.532-1.044-0.013-1.353-0.412-1.667-2.15-0.227-1.255 0.206-2.054 0.979-1.809 0.401 0.127 0.53-0.219 0.784-2.11 1.019-7.588 7.512-12.292 15.005-10.871zM9.544 18.627c-0.662 1.236 1.108 2.028 1.844 0.826 0.259-0.422 0.21-0.612-0.243-0.949-0.764-0.567-1.252-0.529-1.601 0.123zM19.575 18.504c-0.452 0.336-0.502 0.527-0.245 0.949 0.462 0.758 1.472 0.828 1.847 0.128 0.239-0.447 0.205-0.687-0.147-1.039-0.564-0.564-0.739-0.569-1.455-0.037zM10.543 23.393c-1.789 2.126 0.138 5.146 3.617 5.669 4.559 0.685 8.356-2.891 6.018-5.669l-0.728-0.865h-8.179l-0.728 0.865zM14.027 23.367c0.854 0.237 1.58 0.227 2.838-0.040 1.475-0.313 1.784-0.297 2.423 0.121 0.96 0.629 1.193 1.652 0.627 2.748-1.562 3.021-7.532 3.051-9.086 0.046-0.599-1.158-0.542-1.653 0.286-2.48 0.798-0.799 1.241-0.858 2.913-0.395zM14.401 24.977c-0.446 0.446-0.203 1.845 0.375 2.154 0.953 0.51 1.805-0.123 1.695-1.26-0.077-0.797-0.216-0.942-0.976-1.016-0.487-0.048-0.98 0.007-1.095 0.121z">
			</path>
		</symbol>
		<symbol id="menu" viewBox="0 0 32 32">
			<path stroke-linejoin="miter" stroke-linecap="round" stroke-miterlimit="4" stroke-width="2.6667" d="M4 9.333h24.381M4 16.191h24.381M4 23.048h24.381">
			</path>
		</symbol>
		<symbol id="calendar" viewBox="0 0 32 32">
			<path stroke-linejoin="round" stroke-linecap="round" stroke-miterlimit="10" stroke-width="1.1429" d="M10.667 2.667v4M21.333 2.667v4M4.667 12.12h22.667M28 11.333v11.333c0 4-2 6.667-6.667 6.667h-10.667c-4.667 0-6.667-2.667-6.667-6.667v-11.333c0-4 2-6.667 6.667-6.667h10.667c4.667 0 6.667 2.667 6.667 6.667z">
			</path>
			<path stroke-linejoin="round" stroke-linecap="round" stroke-miterlimit="4" stroke-width="1.5238" d="M20.927 18.266h0.012M20.927 22.266h0.012M15.993 18.266h0.013M15.993 22.266h0.013M11.059 18.266h0.013M11.059 22.266h0.013">
			</path>
		</symbol>
		<symbol id="phone" viewBox="0 0 31 32">
			<path stroke-linejoin="miter" stroke-linecap="butt" stroke-miterlimit="10" stroke-width="1.1163" d="M28.612 24.244c0 0.469-0.104 0.951-0.326 1.42s-0.508 0.912-0.886 1.328c-0.638 0.703-1.341 1.211-2.136 1.537-0.781 0.326-1.628 0.495-2.54 0.495-1.328 0-2.748-0.313-4.246-0.951s-2.995-1.498-4.48-2.579c-1.513-1.107-2.941-2.326-4.272-3.646-1.317-1.326-2.532-2.749-3.633-4.259-1.068-1.485-1.927-2.969-2.553-4.441-0.625-1.485-0.938-2.904-0.938-4.259 0-0.886 0.156-1.732 0.469-2.514 0.313-0.794 0.807-1.524 1.498-2.175 0.833-0.82 1.745-1.224 2.709-1.224 0.365 0 0.729 0.078 1.055 0.234 0.339 0.156 0.638 0.391 0.873 0.729l3.021 4.259c0.234 0.326 0.404 0.625 0.521 0.912 0.117 0.274 0.182 0.547 0.182 0.794 0 0.313-0.091 0.625-0.274 0.925-0.169 0.3-0.417 0.612-0.729 0.925l-0.99 1.029c-0.143 0.143-0.208 0.313-0.208 0.521 0 0.104 0.013 0.195 0.039 0.3 0.039 0.104 0.078 0.182 0.104 0.26 0.234 0.43 0.638 0.99 1.211 1.667 0.586 0.677 1.211 1.367 1.888 2.058 0.703 0.69 1.38 1.328 2.071 1.914 0.677 0.573 1.237 0.964 1.68 1.198 0.065 0.026 0.143 0.065 0.234 0.104 0.104 0.039 0.208 0.052 0.326 0.052 0.221 0 0.391-0.078 0.534-0.221l0.99-0.977c0.326-0.326 0.638-0.573 0.938-0.729 0.3-0.182 0.599-0.273 0.925-0.273 0.247 0 0.508 0.052 0.794 0.169s0.586 0.287 0.912 0.508l4.311 3.060c0.339 0.234 0.573 0.508 0.716 0.834 0.13 0.326 0.208 0.651 0.208 1.016v0z">
			</path>
			<path stroke-linejoin="round" stroke-linecap="round" stroke-miterlimit="4" stroke-width="1.1163" d="M24.093 12.093c0-0.781-0.612-1.98-1.524-2.956-0.834-0.899-1.94-1.602-3.034-1.602M28.651 12.093c0-5.040-4.076-9.116-9.116-9.116">
			</path>
		</symbol>
		<symbol id="tooth" viewBox="0 0 40 32">
			<path d="M4.299 0.796c-5.231 2.953-5.495 15.378-0.567 26.679 1.983 4.546 3.712 5.562 5.928 3.484 0.877-0.822 1.185-1.701 1.531-4.365 0.468-3.606 1.414-6.506 2.122-6.506 0.864 0 1.829 2.283 2.263 5.354 0.774 5.467 1.888 7.039 4.5 6.342 1.484-0.396 1.196-1.849-0.372-1.877-1.553-0.028-1.62-0.137-2.049-3.367-0.726-5.458-2.148-8.283-4.17-8.283-2.030 0-3.492 3.043-4.217 8.773-0.566 4.48-2.354 3.834-4.469-1.616-1.976-5.092-2.773-9.707-2.563-14.852 0.216-5.301 0.956-7.153 3.268-8.18 1.416-0.629 1.816-0.625 4.054 0.036 3.067 0.907 4.627 0.915 7.662 0.042 1.302-0.375 2.895-0.563 3.54-0.419 1.5 0.336 3.198 2.482 3.778 4.774 0.508 2.008 0.86 2.396 1.68 1.856 0.985-0.648-0.537-5.161-2.293-6.8-2.030-1.895-3.547-2.146-7.302-1.204-2.969 0.744-3.347 0.747-6.002 0.038-3.604-0.963-4.478-0.95-6.322 0.090zM26.649 13.364c-2.216 1.234-4.444 4.449-4.829 6.967-0.483 3.165 0.454 6.161 2.663 8.517 3.941 4.203 9.075 4.203 13.024 0 1.614-1.718 2.087-2.603 2.485-4.648 0.582-2.993-0.066-5.95-1.848-8.434-2.433-3.392-7.729-4.499-11.495-2.403zM34.265 15.011c2.3 1.111 3.701 3.247 3.952 6.027 0.272 3.015-0.098 4.26-1.9 6.381-2.769 3.259-7.040 3.525-10.058 0.625-2.107-2.024-2.735-3.718-2.499-6.742 0.44-5.648 5.528-8.695 10.504-6.293zM30.393 21.414c-3.103 3.319-3.736 4.625-2.244 4.625 0.301 0 1.958-1.547 3.682-3.438 2.618-2.87 3.047-3.55 2.602-4.119-0.293-0.375-0.561-0.682-0.597-0.682s-1.585 1.626-3.444 3.614z">
			</path>
		</symbol>
		<symbol id="elbow" viewBox="0 0 32 32">
			<path d="M0.522 0.356c-0.106 0.191-0.304 1.913-0.44 3.825-0.313 4.408 0.277 9.202 1.691 13.746 0.602 1.934 1.26 4.819 1.463 6.412 0.707 5.552 1.638 6.438 7.31 6.957 2.173 0.199 4.616 0.482 5.429 0.629s2.724 0.072 4.247-0.168c3.554-0.559 11.554-3.072 11.738-3.687 0.288-0.961-0.966-0.873-4.418 0.31-6.803 2.331-7.186 2.361-17.745 1.368-4.194-0.394-4.577-0.8-5.271-5.566-0.284-1.958-1.064-5.274-1.732-7.37-1.156-3.627-1.218-4.115-1.278-10.17-0.057-5.742-0.332-7.48-0.994-6.286zM12.354 0.338c-0.099 0.182 0.148 1.718 0.548 3.414 0.611 2.589 0.688 3.808 0.478 7.606-0.137 2.487-0.274 5.355-0.305 6.373l-0.056 1.85 3.324 0.231c2.448 0.17 3.925 0.52 5.605 1.329 2.609 1.256 9.146 2.329 9.793 1.609 0.75-0.835-0.094-1.199-3.321-1.432-2.308-0.166-3.974-0.555-5.645-1.316-1.303-0.594-3.741-1.28-5.417-1.525-3.469-0.507-3.271-0.126-2.65-5.095 0.425-3.405 0.023-8.567-0.899-11.531-0.472-1.516-1.1-2.169-1.457-1.513z">
			</path>
		</symbol>
		<symbol id="wallet" viewBox="0 0 32 32">
			<path stroke-linejoin="round" stroke-linecap="round" stroke-miterlimit="4" stroke-width="1.1429" d="M24.053 18.067c-0.56 0.547-0.88 1.333-0.8 2.173 0.12 1.44 1.44 2.493 2.88 2.493h2.533v1.587c0 2.76-2.253 5.013-5.013 5.013h-15.307c-2.76 0-5.013-2.253-5.013-5.013v-8.973c0-2.76 2.253-5.013 5.013-5.013h15.307c2.76 0 5.013 2.253 5.013 5.013v1.92h-2.693c-0.747 0-1.427 0.293-1.92 0.8z">
			</path>
			<path stroke-linejoin="round" stroke-linecap="round" stroke-miterlimit="4" stroke-width="1.1429" d="M3.333 16.547v-6.093c0-1.587 0.973-3 2.453-3.56l10.587-4c0.384-0.145 0.796-0.194 1.203-0.144s0.795 0.198 1.132 0.432c0.337 0.233 0.612 0.545 0.802 0.908s0.289 0.767 0.289 1.177v5.067M9.333 16h9.333M30.079 18.627v2.747c0 0.733-0.587 1.333-1.333 1.36h-2.613c-1.44 0-2.76-1.053-2.88-2.493-0.080-0.84 0.24-1.627 0.8-2.173 0.493-0.507 1.173-0.8 1.92-0.8h2.773c0.747 0.027 1.333 0.627 1.333 1.36z">
			</path>
		</symbol>
		<symbol id="facebook" viewBox="0 0 32 32">
			<path stroke-linejoin="miter" stroke-linecap="round" stroke-miterlimit="10" stroke-width="1.1429" d="M18.667 12.4v3.867h3.467c0.267 0 0.4 0.267 0.4 0.533l-0.533 2.533c0 0.133-0.267 0.267-0.4 0.267h-2.933v9.733h-4v-9.6h-2.267c-0.267 0-0.4-0.133-0.4-0.4v-2.533c0-0.267 0.133-0.4 0.4-0.4h2.267v-4.4c0-2.267 1.733-4 4-4h3.6c0.267 0 0.4 0.133 0.4 0.4v3.2c0 0.267-0.133 0.4-0.4 0.4h-3.2c-0.267 0-0.4 0.133-0.4 0.4v0z">
			</path>
			<path stroke-linejoin="round" stroke-linecap="round" stroke-miterlimit="4" stroke-width="1.1429" d="M20 29.333h-8c-6.667 0-9.333-2.667-9.333-9.333v-8c0-6.667 2.667-9.333 9.333-9.333h8c6.667 0 9.333 2.667 9.333 9.333v8c0 6.667-2.667 9.333-9.333 9.333z">
			</path>
		</symbol>
		<symbol id="plus" viewBox="0 0 31 32">
			<path d="M22.572 17.35h-14.134c-0.268 0-0.524-0.12-0.714-0.332s-0.296-0.501-0.296-0.802c0-0.301 0.106-0.589 0.296-0.802s0.446-0.332 0.714-0.332h14.134c0.268 0 0.524 0.12 0.714 0.332s0.296 0.501 0.296 0.802c0 0.301-0.106 0.589-0.296 0.802s-0.446 0.332-0.714 0.332z">
			</path>
			<path d="M16.575 8.848l-0.155 14.133c-0.003 0.268-0.125 0.523-0.34 0.71s-0.504 0.29-0.805 0.287c-0.301-0.003-0.588-0.113-0.799-0.305s-0.327-0.45-0.324-0.717l0.155-14.133c0.003-0.268 0.125-0.523 0.34-0.71s0.504-0.29 0.805-0.287c0.301 0.003 0.588 0.113 0.799 0.305s0.327 0.45 0.324 0.717z">
			</path>
		</symbol>
		<symbol id="stomach" viewBox="0 0 32 32">
			<path d="M13.548 0.28c-0.314 0.507 0.16 5.947 0.697 8.012 0.415 1.595 1.431 3.454 2.163 3.957 0.172 0.118 0.232 1.641 0.14 3.547-0.331 6.863-2.286 8.501-8 6.701-4.028-1.269-6.065-0.142-7.866 4.351-0.828 2.064-0.849 2.239-0.345 2.795 0.689 0.76 2.525 1.368 3.345 1.108 0.349-0.111 0.721-0.472 0.826-0.803 0.304-0.955 1.458-2.267 1.994-2.267 0.27 0 1.253 0.651 2.186 1.447 2.634 2.247 4.324 2.871 7.773 2.872 8.272 0.002 13.978-5.252 15.35-14.133 0.915-5.922-1.531-10.972-5.948-12.282-2.055-0.609-2.88-0.588-4.947 0.125-2.029 0.7-2.012 0.722-2.311-3.020l-0.206-2.58-2.314-0.094c-1.445-0.059-2.397 0.040-2.536 0.264zM17.387 1.965c0.107 0.399 0.203 1.306 0.213 2.015s0.207 1.725 0.437 2.257c0.357 0.826 0.338 1.132-0.128 2.096-0.3 0.621-0.688 1.486-0.863 1.924l-0.319 0.795-0.545-0.83c-0.711-1.084-1.486-4.784-1.493-7.128l-0.005-1.854h1.254c1.028 0 1.29 0.131 1.449 0.726zM26.532 7.073c3.101 1.499 4.507 4.658 4.205 9.449-0.539 8.553-5.583 13.876-13.56 14.31-3.49 0.19-4.976-0.302-7.657-2.529-2.586-2.149-3.259-2.271-4.683-0.849-0.623 0.622-1.133 1.363-1.133 1.647 0 0.668-1.704 0.702-2.25 0.045-0.535-0.644 1.55-5.023 2.68-5.627 0.931-0.497 2.72-0.358 5.763 0.448 2.798 0.741 4.252 0.483 5.656-1.003 1.396-1.479 2.019-3.708 2.238-8.020 0.269-5.278 1.090-7.282 3.353-8.183 1.398-0.557 3.89-0.412 5.388 0.312zM20.784 15.266c-1.057 0.573-1.725 2.116-1.427 3.298 0.246 0.981 4.005 4.924 4.693 4.924s4.447-3.944 4.693-4.924c0.311-1.239-0.39-2.744-1.56-3.348-0.814-0.42-1.171-0.439-2.169-0.11-0.888 0.292-1.366 0.301-1.865 0.035-0.864-0.462-1.329-0.437-2.365 0.125zM23.332 16.575c0.65 0.454 0.786 0.454 1.436 0 1.492-1.044 2.835-0.444 2.835 1.266 0 0.778-0.386 1.376-1.776 2.746l-1.776 1.752-1.776-1.752c-1.39-1.37-1.776-1.968-1.776-2.746 0-1.711 1.342-2.31 2.835-1.266z">
			</path>
		</symbol>
		<symbol id="global" viewBox="0 0 32 32">
			<path stroke-linejoin="round" stroke-linecap="round" stroke-miterlimit="4" stroke-width="2" d="M16 29.333c7.364 0 13.333-5.969 13.333-13.333s-5.969-13.333-13.333-13.333c-7.364 0-13.333 5.969-13.333 13.333s5.969 13.333 13.333 13.333z">
			</path>
			<path stroke-linejoin="round" stroke-linecap="round" stroke-miterlimit="4" stroke-width="2" d="M10.666 4h1.333c-2.6 7.789-2.6 16.211 0 24h-1.333M19.999 4c2.6 7.789 2.6 16.211 0 24">
			</path>
			<path stroke-linejoin="round" stroke-linecap="round" stroke-miterlimit="4" stroke-width="2" d="M4 21.333v-1.333c7.789 2.6 16.211 2.6 24 0v1.333M4 11.999c7.789-2.6 16.211-2.6 24 0">
			</path>
		</symbol>
		<symbol id="google" viewBox="0 0 32 32">
			<path stroke-linejoin="round" stroke-linecap="round" stroke-miterlimit="10" stroke-width="1.1429" d="M28.8 13.6h-12.533v4.933h7.333c-0.133 1.2-0.933 3.067-2.667 4.267-1.067 0.8-2.667 1.333-4.667 1.333-3.467 0-6.533-2.267-7.6-5.6-0.267-0.8-0.4-1.733-0.4-2.667s0.133-1.867 0.4-2.667c0.133-0.267 0.133-0.533 0.267-0.667 1.2-2.8 4-4.8 7.333-4.8 2.533 0 4.133 1.067 5.2 2l3.733-3.733c-2.267-2-5.333-3.333-8.933-3.333-5.2 0-9.733 2.933-11.867 7.333-0.933 1.867-1.467 3.867-1.467 6s0.533 4.133 1.467 6c2.133 4.4 6.667 7.333 11.867 7.333 3.6 0 6.667-1.2 8.8-3.2 2.533-2.267 4-5.733 4-9.867 0-1.067-0.133-1.867-0.267-2.667v0z">
			</path>
		</symbol>
		<symbol id="instagram" viewBox="0 0 32 32">
			<path stroke-linejoin="round" stroke-linecap="round" stroke-miterlimit="4" stroke-width="1.1429" d="M12 29.333h8c6.667 0 9.333-2.667 9.333-9.333v-8c0-6.667-2.667-9.333-9.333-9.333h-8c-6.667 0-9.333 2.667-9.333 9.333v8c0 6.667 2.667 9.333 9.333 9.333z">
			</path>
			<path stroke-linejoin="round" stroke-linecap="round" stroke-miterlimit="4" stroke-width="1.1429" d="M16 20.667c0.613 0 1.22-0.121 1.786-0.355s1.081-0.578 1.514-1.012c0.433-0.433 0.777-0.948 1.012-1.514s0.355-1.173 0.355-1.786-0.121-1.22-0.355-1.786c-0.235-0.566-0.578-1.081-1.012-1.514s-0.948-0.777-1.514-1.012c-0.566-0.235-1.173-0.355-1.786-0.355-1.238 0-2.425 0.492-3.3 1.367s-1.367 2.062-1.367 3.3 0.492 2.425 1.367 3.3c0.875 0.875 2.062 1.367 3.3 1.367z">
			</path>
			<path stroke-linejoin="round" stroke-linecap="round" stroke-miterlimit="4" stroke-width="1.5238" d="M23.515 9.333h0.016">
			</path>
		</symbol>
		<symbol id="kidney" viewBox="0 0 21 32">
			<path d="M8.094 0.666c-1.071 0.585-1.685 1.24-2.234 2.38-0.734 1.526-0.778 2.457-0.219 4.718 0.137 0.555-0.156 0.89-1.427 1.631-2.132 1.242-3.495 3.458-4.003 6.511-0.336 2.022-0.295 3.028 0.301 7.35 0.38 2.754 0.691 5.772 0.691 6.706 0 1.74 0.435 2.465 1.072 1.786 0.259-0.276 0.183-1.762-0.275-5.369-0.349-2.743-0.633-6.481-0.633-8.307 0-3 0.088-3.479 0.911-4.97 0.584-1.059 1.453-1.989 2.424-2.595 1.433-0.894 1.535-0.911 1.943-0.318 0.361 0.525 0.341 0.771-0.121 1.522-0.729 1.184-0.712 4.42 0.029 5.908l0.558 1.119-1.488 0.701c-2.333 1.099-2.612 2.16-2.065 7.863 0.347 3.618 0.541 4.574 0.929 4.574 0.561 0 0.577-0.574 0.172-6.015-0.228-3.058-0.188-3.696 0.28-4.456 0.819-1.332 1.282-1.121 1.029 0.471-0.416 2.626 0.811 5.413 2.894 6.571 1.536 0.853 4.656 0.782 6.311-0.143 3.085-1.725 4.845-5.181 5.461-10.725 1.042-9.382-2.875-16.627-9.465-17.508-1.288-0.172-1.883-0.057-3.074 0.594zM13.125 1.857c2.911 1.056 5.334 4.435 6.175 8.612 0.566 2.811 0.183 9.088-0.706 11.581-0.841 2.357-2.635 4.652-4.171 5.337-2.555 1.139-5.86 0.187-6.893-1.986-0.576-1.212-0.518-3.907 0.12-5.604 0.5-1.332 0.5-1.523 0-2.64-0.711-1.587-0.682-3.896 0.064-5.2 0.594-1.039 0.591-1.068-0.33-3.145-1.042-2.35-1.167-3.915-0.434-5.425 0.977-2.011 3.278-2.581 6.175-1.53z">
			</path>
		</symbol>
		<symbol id="laboratory" viewBox="0 0 31 32">
			<path d="M22.502 1.145c-0.832 1.378-0.884 2.24-0.151 2.524 0.424 0.164 0.461 0.366 0.171 0.914-0.205 0.387-0.583 0.622-0.839 0.522-0.706-0.273-1.068 0.354-3.014 5.219-1.619 4.050-1.753 4.589-1.393 5.632 0.3 0.869 0.789 1.323 1.981 1.839 1.537 0.665 1.615 0.666 2.683 0.037 0.779-0.459 1.292-1.186 1.76-2.495 0.363-1.016 0.846-1.848 1.074-1.848 0.599 0 1.259 0.759 1.259 1.449 0 1.227-1.74 4.448-2.892 5.353l-1.191 0.936-4.375-1.726c-3.947-1.557-5.425-1.794-4.797-0.768 0.11 0.18 2.172 1.089 4.581 2.018 4.197 1.619 4.387 1.737 4.55 2.814 0.093 0.618 0.011 1.324-0.184 1.568-0.56 0.704-2.882 0.521-5.614-0.444-1.385-0.489-2.566-0.839-2.626-0.779s0.119 0.438 0.397 0.839c0.738 1.064 5.086 2.4 6.773 2.082 0.732-0.138 1.517-0.407 1.745-0.597 0.506-0.422 2.706 0.622 2.392 1.136-0.116 0.188-2.242 0.34-4.764 0.34-2.506 0-4.553 0.12-4.55 0.267 0.021 1.017 0.75 1.142 7.223 1.236 6.026 0.088 6.68 0.157 6.787 0.719 0.109 0.575-0.397 0.622-6.734 0.622-5.924 0-6.882 0.076-7.066 0.563-0.118 0.309-0.214 0.633-0.214 0.718s3.367 0.112 7.481 0.060l7.481-0.096 0.108-1.313c0.158-1.921-0.813-2.771-3.188-2.792-1.833-0.016-1.841-0.021-1.017-0.622 2.508-1.83 3.274-3.304 2.623-5.046-0.281-0.752-0.155-1.424 0.64-3.404 0.545-1.357 0.995-3.042 1-3.744 0.014-1.705-1.344-4.218-2.832-5.239-0.666-0.458-1.156-1.070-1.095-1.368 0.061-0.297-0.14-0.821-0.448-1.165-0.72-0.804-0.341-1.917 0.57-1.676 0.501 0.132 0.842-0.176 1.388-1.258 0.398-0.789 0.592-1.558 0.432-1.711s-1.446-0.769-2.856-1.369l-2.564-1.092-0.691 1.145zM25.85 2.464c1.459 0.632 1.894 1.425 0.782 1.425-0.861 0-3.413-1.263-3.414-1.689-0.002-0.628 0.745-0.553 2.632 0.264zM24.977 5.35c0 0.416-0.247 0.673-0.645 0.673-0.911 0-1.145-0.346-0.745-1.1 0.425-0.802 1.391-0.506 1.391 0.427zM23.833 7.267c0.823 0.336 1.496 0.765 1.496 0.953 0 0.432-2.13 5.708-2.455 6.081-0.133 0.153-1.123-0.063-2.199-0.479l-1.957-0.757 0.877-2.188c0.482-1.203 1.098-2.725 1.368-3.382 0.288-0.7 0.674-1.121 0.933-1.017 0.243 0.098 1.115 0.453 1.938 0.789zM27.612 11.060c1.085 0.862 1.941 2.644 1.941 4.041 0 0.735-1.168 4.127-1.635 4.748-0.056 0.075-0.575-0.061-1.151-0.302l-1.049-0.439 0.685-1.756c0.943-2.416 0.874-3.399-0.317-4.523-0.838-0.79-0.945-1.077-0.651-1.743 0.441-0.998 0.945-1.004 2.176-0.026zM3.151 14.912c0 0.474 0.235 0.711 0.704 0.711 0.612 0 0.704 0.237 0.704 1.818 0 1.438-0.442 2.848-2.112 6.744-1.162 2.709-2.112 5.322-2.112 5.806 0 1.702 1.022 1.988 7.119 1.988 5.085 0 5.614-0.060 6.258-0.711 0.387-0.391 0.704-0.953 0.704-1.249s-1.109-2.774-2.464-5.506c-2.158-4.351-2.464-5.212-2.464-6.929 0-1.723 0.085-1.96 0.704-1.96 0.469 0 0.704-0.237 0.704-0.711 0-0.668-0.235-0.711-3.872-0.711s-3.872 0.043-3.872 0.711zM21.998 15.623c0.090 0 0.163 0.223 0.163 0.495 0 1.321-3.47 0.722-4.007-0.692-0.404-1.065 0.149-1.21 1.922-0.504 0.967 0.385 1.832 0.7 1.922 0.7zM8.86 18.201c0.072 1.418 0.26 2.858 0.418 3.2 0.258 0.561 0.040 0.622-2.229 0.622-2.377 0-2.495-0.038-2.15-0.688 0.2-0.378 0.364-1.818 0.364-3.2v-2.512h3.465l0.132 2.578zM27.583 21.31c0.878 0.87 0.82 2.743-0.112 3.685-1.658 1.674-4.749 0.416-4.683-1.906 0.072-2.558 2.938-3.621 4.796-1.779zM11.929 26.598c0.842 1.734 1.419 3.334 1.284 3.556-0.167 0.273-2.104 0.402-6.034 0.402-6.776 0-6.467 0.286-4.503-4.178l1.291-2.933h6.433l1.53 3.153zM5.263 25.578c0 0.391 0.158 0.711 0.352 0.711s0.352-0.32 0.352-0.711-0.158-0.711-0.352-0.711c-0.194 0-0.352 0.32-0.352 0.711zM7.514 26.793c-0.292 0.767 0.114 1.722 0.654 1.541 0.242-0.081 0.44-0.522 0.44-0.978 0-0.975-0.784-1.378-1.093-0.563z">
			</path>
		</symbol>
		<symbol id="map" viewBox="0 0 32 32">
			<path stroke-linejoin="round" stroke-linecap="round" stroke-miterlimit="4" stroke-width="0.7619" d="M11.414 5.334v17.333M20.974 8.827v17.84M3.054 10.374v12.973c0 2.533 1.8 3.573 3.987 2.32l3.133-1.787c0.68-0.387 1.813-0.427 2.52-0.067l7 3.507c0.707 0.347 1.84 0.32 2.52-0.067l5.773-3.307c0.733-0.427 1.347-1.467 1.347-2.32v-12.973c0-2.533-1.8-3.573-3.987-2.32l-3.133 1.787c-0.68 0.387-1.813 0.427-2.52 0.067l-7-3.493c-0.707-0.347-1.84-0.32-2.52 0.067l-5.773 3.307c-0.747 0.427-1.347 1.467-1.347 2.307z">
			</path>
		</symbol>
		<symbol id="doctor" viewBox="0 0 29 32">
			<path d="M11.655 0.172c-1.678 0.364-2.723 1.007-2.888 1.778-0.078 0.365-0.363 2.717-0.634 5.226-0.555 5.15-0.415 6.241 1.076 8.353 2.506 3.549 8.196 3.549 10.702 0 1.491-2.111 1.631-3.202 1.076-8.353-0.644-5.969-0.607-5.844-1.886-6.467-1.258-0.612-5.641-0.928-7.446-0.537zM18.048 1.497c1.26 0.359 1.299 0.463 1.697 4.569l0.21 2.168h-10.789l0.21-2.168c0.389-4.012 0.462-4.227 1.541-4.548 1.355-0.403 5.747-0.416 7.131-0.022zM13.934 3.417c0 0.857-0.104 0.963-0.939 0.963-0.73 0-0.939 0.143-0.939 0.642s0.209 0.642 0.939 0.642c0.835 0 0.939 0.107 0.939 0.963 0 0.749 0.139 0.963 0.626 0.963s0.626-0.214 0.626-0.963c0-0.857 0.104-0.963 0.939-0.963 0.73 0 0.939-0.143 0.939-0.642s-0.209-0.642-0.939-0.642c-0.835 0-0.939-0.107-0.939-0.963 0-0.749-0.139-0.963-0.626-0.963s-0.626 0.214-0.626 0.963zM19.803 9.622c0.608 0.398 0.466 2.984-0.241 4.406-2.020 4.062-7.985 4.062-10.005 0-0.666-1.341-0.849-3.837-0.319-4.38 0.372-0.382 9.986-0.405 10.565-0.026zM9.167 19.79c-2.949 0.769-5.165 1.887-6.874 3.47-1.732 1.604-2.132 2.73-2.132 6v2.74h28.8v-2.74c0-3.269-0.4-4.397-2.129-5.998-1.513-1.401-2.919-2.176-5.699-3.143-2.968-1.033-8.665-1.19-11.965-0.329zM18.227 20.566c0.139 0.131-3.481 8.865-3.675 8.865-0.111 0-0.965-1.905-1.897-4.233s-1.739-4.343-1.793-4.477c-0.145-0.361 2.277-0.542 4.95-0.37 1.291 0.083 2.378 0.18 2.415 0.215zM11.547 25.338c1.011 2.516 1.907 4.755 1.99 4.976 0.117 0.313-1.205 0.401-5.987 0.401h-6.138v-2.408c0-2.324 0.040-2.453 1.154-3.718 1.359-1.544 5.069-3.566 6.985-3.807 0.086-0.011 0.984 2.039 1.996 4.555zM23.095 22.129c1.328 0.613 2.583 1.496 3.365 2.367 1.224 1.362 1.247 1.433 1.247 3.804v2.416h-6.138c-4.782 0-6.105-0.089-5.987-0.401 0.083-0.221 0.979-2.455 1.99-4.964 2.106-5.224 1.7-4.988 5.523-3.221z">
			</path>
		</symbol>
		<symbol id="heart" viewBox="0 0 32 32">
			<path d="M1.616 0.405c-0.574 0.249-1.164 0.846-1.402 1.417-0.391 0.942-0.347 1.058 0.992 2.606 0.771 0.891 1.942 2.509 2.601 3.595l1.2 1.975-0.794 0.941c-2.021 2.396-2.377 8.468-0.697 11.893 1.602 3.266 5.444 5.915 9.752 6.725 1.047 0.197 2.557 0.686 3.354 1.086 3.244 1.629 7.687 1.802 12.018 0.468 1.417-0.436 2.329-0.922 2.651-1.411 1.125-1.712 0.867-8.298-0.477-12.194-0.336-0.974-0.826-2.906-1.088-4.293s-0.837-3.405-1.277-4.485l-0.8-1.963 2.225-1.849c1.817-1.51 2.187-1.972 2.018-2.524-0.31-1.010-0.82-1.531-1.971-2.011-1.514-0.631-1.784-0.563-3.397 0.853-1.659 1.456-2.144 1.559-2.985 0.632-0.326-0.359-1.079-0.953-1.673-1.319-0.938-0.578-1.207-0.614-2.036-0.271-0.526 0.217-1.406 0.906-1.957 1.532l-1.001 1.137 1.522 1.159-0.852 1.516c-0.692 1.232-1.102 1.589-2.184 1.908-0.733 0.216-1.799 0.745-2.37 1.177-1.424 1.076-2.387 0.705-3.529-1.359l-0.88-1.59 1.435-1.196c1.204-1.003 1.403-1.329 1.239-2.019-0.397-1.671-1.998-2.778-3.17-2.192-0.354 0.178-1.035 0.686-1.512 1.129l-0.867 0.806-1.104-1.167c-1.209-1.278-1.513-1.35-2.986-0.711zM4.547 2.706l1.001 1.311 1.524-1.376c1.582-1.428 2.211-1.514 2.816-0.385 0.285 0.531 0.113 0.82-1.137 1.917-0.81 0.711-1.472 1.432-1.472 1.603s0.364 0.845 0.808 1.498l0.809 1.187-1.522 0.387c-0.837 0.213-1.538 0.358-1.556 0.323-0.883-1.661-2.113-3.524-3.232-4.894-0.785-0.961-1.428-1.812-1.428-1.89s0.236-0.377 0.524-0.664c0.797-0.795 1.759-0.464 2.865 0.984zM23.533 3.563c2.345 2.348 4.126 5.296 4.568 7.56l0.206 1.054-1.113-1.054c-0.612-0.58-1.61-1.499-2.217-2.044s-1.518-1.615-2.023-2.379l-0.918-1.39-0.644 1.014c-0.543 0.855-0.841 1.014-1.901 1.014-1.502 0-1.575-0.349-0.421-2.041l0.836-1.227-1.389-1.474 0.869-0.681c0.478-0.375 1.083-0.681 1.345-0.681s1.523 1.048 2.802 2.329zM30.182 1.903l0.671 0.669-1.371 1.178c-2.477 2.128-2.413 2.11-3.225 0.973l-0.723-1.012 1.332-1.239c1.503-1.398 2.341-1.542 3.316-0.569zM21.835 8.928c1.816 0.545 4.144 2.254 5.494 4.033 2.256 2.973 3.456 7.335 3.465 12.603 0.005 3.058-0.045 3.318-0.719 3.751-2.548 1.637-9.215 1.925-12.393 0.536-1.994-0.872-4.202-3.11-5.407-5.482-0.956-1.881-1.83-5.568-1.717-7.241 0.082-1.219-0.145-1.618-0.722-1.262-0.6 0.37-0.176 5.107 0.653 7.291 0.385 1.013 1.197 2.564 1.806 3.446s1.107 1.668 1.107 1.747c0 0.271-2.422-0.524-3.958-1.299-2.244-1.132-3.954-2.811-4.971-4.881-0.763-1.553-0.894-2.218-0.896-4.55-0.002-3.306 0.685-5.331 2.286-6.732 1.286-1.126 3.008-1.298 5.215-0.521 1.198 0.422 1.345 0.41 1.848-0.145 0.301-0.331 1.147-0.908 1.881-1.281 1.103-0.561 1.726-0.652 3.59-0.524 1.24 0.085 2.789 0.315 3.44 0.511z">
			</path>
		</symbol>
		<symbol id="profile" viewBox="0 0 32 32">
			<path stroke-linejoin="round" stroke-linecap="round" stroke-miterlimit="4" stroke-width="1.1429" d="M27.453 29.333c0-5.16-5.133-9.333-11.453-9.333s-11.453 4.173-11.453 9.333M15.999 16c1.768 0 3.464-0.702 4.714-1.953s1.953-2.946 1.953-4.714-0.702-3.464-1.953-4.714c-1.25-1.25-2.946-1.953-4.714-1.953s-3.464 0.702-4.714 1.953c-1.25 1.25-1.953 2.946-1.953 4.714s0.702 3.464 1.953 4.714c1.25 1.25 2.946 1.953 4.714 1.953v0z">
			</path>
		</symbol>
		<symbol id="search" viewBox="0 0 32 32">
			<path stroke-linejoin="round" stroke-linecap="round" stroke-miterlimit="4" stroke-width="2" d="M29.333 29.333l-2.667-2.667M15.333 28c1.663 0 3.311-0.328 4.847-0.964s2.933-1.57 4.109-2.746c1.176-1.176 2.109-2.573 2.746-4.109s0.964-3.184 0.964-4.847-0.328-3.311-0.964-4.847c-0.637-1.537-1.57-2.933-2.746-4.109s-2.573-2.109-4.109-2.746-3.184-0.964-4.847-0.964c-3.359 0-6.581 1.335-8.957 3.71s-3.71 5.597-3.71 8.957c0 3.359 1.335 6.581 3.71 8.957s5.597 3.71 8.957 3.71v0z">
			</path>
		</symbol>
		<symbol id="mail" viewBox="0 0 31 32">
			<path stroke-linejoin="round" stroke-linecap="round" stroke-miterlimit="10" stroke-width="1.1163" d="M22.14 27.070h-13.023c-3.907 0-6.512-1.953-6.512-6.512v-9.116c0-4.558 2.605-6.512 6.512-6.512h13.023c3.907 0 6.512 1.954 6.512 6.512v9.116c0 4.558-2.605 6.512-6.512 6.512z">
			</path>
			<path stroke-linejoin="round" stroke-linecap="round" stroke-miterlimit="10" stroke-width="1.1163" d="M22.14 12.093l-4.076 3.256c-1.341 1.068-3.542 1.068-4.884 0l-4.063-3.256">
			</path>
		</symbol>
		<symbol id="syringe" viewBox="0 0 31 32">
			<path d="M23.438 0.34c-0.116 0.187 0.048 0.626 0.364 0.975 0.56 0.619 0.515 0.693-1.884 3.092l-2.458 2.458-1.603-1.579c-1.246-1.228-1.688-1.493-1.987-1.195s-0.177 0.6 0.546 1.355l0.93 0.971-13.88 13.902 1.244 4.8-2.23 2.248c-1.896 1.911-2.23 2.413-2.23 3.353v1.106l5.6-5.567 4.8 1.244 13.902-13.88 0.971 0.93c0.755 0.723 1.056 0.845 1.355 0.546s0.033-0.74-1.195-1.987l-1.579-1.603 2.458-2.458c2.436-2.436 2.464-2.452 3.12-1.859 0.513 0.464 0.748 0.513 1.044 0.218s-0.409-1.174-3.122-3.896c-1.927-1.933-3.606-3.515-3.731-3.515s-0.321 0.153-0.437 0.34zM26.816 4.325l1.419 1.445-4.942 4.942-3.029-3.029 2.386-2.402c1.312-1.321 2.468-2.402 2.567-2.402s0.82 0.651 1.6 1.445zM21.053 10.083l2.709 2.723-13.49 13.49-4.417-1.181-0.588-2.2c-0.536-2.004-0.543-2.245-0.084-2.705s0.634-0.379 1.945 0.908c1.125 1.104 1.524 1.328 1.826 1.026s0.078-0.701-1.028-1.828l-1.415-1.442 1.722-1.722 0.813 0.764c0.622 0.584 0.901 0.676 1.188 0.388s0.196-0.566-0.388-1.188l-0.764-0.813 1.722-1.722 1.442 1.415c1.127 1.106 1.526 1.331 1.828 1.028s0.078-0.701-1.028-1.828l-1.415-1.442 1.722-1.722 0.813 0.764c0.622 0.584 0.901 0.676 1.188 0.388s0.196-0.566-0.388-1.188l-0.764-0.813 1.722-1.722 1.442 1.415c1.127 1.106 1.526 1.331 1.828 1.028s0.080-0.699-1.016-1.816c-1.376-1.402-1.392-1.442-0.816-2.079 0.323-0.357 0.676-0.649 0.785-0.649s1.417 1.225 2.907 2.723z">
			</path>
		</symbol>
		<symbol id="close-menu" viewBox="0 0 32 32">
			<path stroke-linejoin="round" stroke-linecap="round" stroke-miterlimit="4" stroke-width="2.1818" d="M11.884 20.116l8.233-8.233M20.116 20.116l-8.233-8.233M11.636 30.545h8.727c7.273 0 10.182-2.909 10.182-10.182v-8.727c0-7.273-2.909-10.182-10.182-10.182h-8.727c-7.273 0-10.182 2.909-10.182 10.182v8.727c0 7.273 2.909 10.182 10.182 10.182z">
			</path>
		</symbol>
		<symbol id="logo" viewBox="0 0 110 32">
			<path d="M-0.914-3.657h32.914v38.4h-32.914v-38.4z">
			</path>
			<path d="M35.427 3.353v9.423h-2.491v-9.423h2.491zM38.586 12.090l0.486 0.687h-3.682v-0.687h3.196zM38.185 7.795v0.673h-2.795v-0.673h2.795zM38.829 3.353v0.687h-3.439v-0.687h3.439zM39.57 9.653l-0.462 3.123h-2.625l0.437-0.687c0.389 0 0.749-0.094 1.081-0.283 0.34-0.197 0.636-0.476 0.887-0.835 0.251-0.368 0.437-0.808 0.559-1.319h0.121zM38.185 8.442v1.562h-0.121v-0.067c0-0.422-0.126-0.767-0.377-1.037-0.243-0.278-0.555-0.422-0.936-0.431v-0.027h1.434zM38.185 6.261v1.562h-1.434v-0.027c0.381-0.009 0.697-0.153 0.948-0.431s0.373-0.628 0.365-1.050v-0.054h0.121zM38.829 3.999v1.885h-0.122v-0.108c0-0.538-0.138-0.96-0.413-1.265-0.275-0.314-0.66-0.476-1.154-0.485v-0.027h1.689zM38.829 3.111v0.39l-1.482-0.148c0.178 0 0.365-0.013 0.559-0.040 0.203-0.027 0.389-0.058 0.559-0.094s0.292-0.072 0.365-0.108zM32.972 11.793v0.983h-0.972v-0.135c0 0 0.024 0 0.073 0 0.057 0 0.085 0 0.085 0 0.211 0 0.389-0.081 0.535-0.242 0.154-0.171 0.235-0.372 0.243-0.606h0.036zM32.972 4.336h-0.036c-0.008-0.233-0.089-0.431-0.243-0.592-0.146-0.171-0.324-0.256-0.535-0.256 0 0-0.028 0-0.085 0-0.049 0-0.073 0-0.073 0v-0.135h0.972v0.983z">
			</path>
			<path d="M46.168 12.938l-3.718-8.171h2.783l1.969 4.873-1.033 3.298zM46.168 12.938l-0.024-1.979 2.54-6.219h0.972l-2.758 6.394c-0.032 0.081-0.081 0.202-0.146 0.363-0.065 0.153-0.133 0.323-0.207 0.512-0.064 0.179-0.125 0.354-0.182 0.525-0.049 0.162-0.081 0.296-0.097 0.404h-0.097zM48.356 5.534c0.089-0.233 0.077-0.408-0.037-0.525-0.105-0.126-0.227-0.188-0.364-0.188h-0.097v-0.121h2.491v0.135c0 0-0.016 0-0.048 0s-0.048 0-0.048 0c-0.154 0-0.32 0.054-0.498 0.162-0.178 0.099-0.324 0.278-0.438 0.538h-0.96zM45.536 5.534h-2.734c-0.113-0.26-0.259-0.44-0.438-0.538-0.17-0.108-0.336-0.162-0.498-0.162 0 0-0.012 0-0.036 0-0.032 0-0.049 0-0.049 0v-0.135h4.265v0.121h-0.097c-0.13 0-0.251 0.063-0.365 0.188-0.113 0.117-0.13 0.292-0.049 0.525z">
			</path>
			<path d="M55.888 4.699v8.077h-2.382v-8.077h2.382zM53.543 11.942v0.835h-0.79v-0.135c0 0 0.020 0 0.061 0s0.065 0 0.073 0c0.162 0 0.304-0.067 0.425-0.202 0.129-0.135 0.194-0.301 0.194-0.498h0.037zM55.864 11.942h0.024c0.008 0.197 0.073 0.363 0.194 0.498s0.267 0.202 0.438 0.202c0 0 0.021 0 0.061 0s0.065 0 0.073 0v0.135h-0.79v-0.835zM55.864 5.534v-0.835h0.778v0.135c0 0-0.020 0-0.061 0-0.032 0-0.053 0-0.061 0-0.17 0-0.316 0.067-0.438 0.202-0.121 0.126-0.186 0.292-0.194 0.498h-0.024zM53.543 5.534h-0.037c0-0.206-0.065-0.372-0.194-0.498-0.122-0.135-0.263-0.202-0.425-0.202-0.008 0-0.032 0-0.073 0s-0.061 0-0.061 0v-0.135h0.79v0.835z">
			</path>
			<path d="M63.707 4.699c0.916 0 1.697 0.162 2.346 0.485 0.648 0.314 1.142 0.772 1.482 1.373 0.348 0.601 0.522 1.328 0.522 2.181s-0.174 1.579-0.522 2.181c-0.34 0.601-0.834 1.063-1.482 1.387-0.648 0.314-1.43 0.471-2.346 0.471h-2.77l-0.024-0.619c0.656 0 1.167 0 1.531 0 0.373 0 0.636 0 0.79 0s0.231 0 0.231 0c0.648 0 1.158-0.301 1.531-0.902 0.381-0.601 0.571-1.44 0.571-2.517s-0.186-1.916-0.559-2.517c-0.373-0.61-0.887-0.915-1.543-0.915 0 0-0.081 0-0.243 0-0.154 0-0.425 0-0.814 0s-0.923 0-1.604 0v-0.606h2.904zM62.784 4.699v8.077h-2.382v-8.077h2.382zM60.439 11.915v0.862h-0.863v-0.135c0 0 0.020 0 0.061 0 0.048 0 0.077 0 0.085 0 0.186 0 0.344-0.072 0.474-0.215 0.138-0.144 0.207-0.314 0.207-0.512h0.037zM60.426 5.534h-0.024c-0.008-0.206-0.081-0.372-0.218-0.498-0.13-0.135-0.288-0.202-0.474-0.202 0 0-0.024 0-0.073 0-0.041 0-0.065 0-0.073 0v-0.135h0.863v0.835z">
			</path>
			<path d="M74.187 4.699v8.077h-2.382v-8.077h2.382zM76.752 12.157l0.486 0.619h-3.074v-0.619h2.588zM76.448 8.482v0.633h-2.284v-0.633h2.284zM76.982 4.699v0.619h-2.819v-0.619h2.819zM77.602 9.949l-0.34 2.827h-2.26l0.352-0.619c0.316 0 0.616-0.085 0.899-0.256 0.292-0.179 0.547-0.431 0.765-0.754 0.219-0.332 0.377-0.731 0.474-1.198h0.109zM76.448 9.088v1.454h-0.122v-0.054c0-0.395-0.113-0.718-0.34-0.969-0.219-0.26-0.506-0.395-0.863-0.404v-0.027h1.324zM76.448 7.068v1.44h-1.324v-0.027c0.357-0.009 0.644-0.144 0.863-0.404 0.227-0.26 0.34-0.588 0.34-0.983v-0.027h0.122zM76.982 5.292v1.75h-0.122v-0.067c0-0.521-0.122-0.924-0.365-1.212s-0.595-0.435-1.057-0.444v-0.027h1.543zM76.982 4.497v0.323l-1.203-0.121c0.219 0 0.45-0.022 0.693-0.067 0.251-0.054 0.421-0.099 0.511-0.135zM71.842 11.942l-0.012 0.835h-0.79v-0.135c0 0 0.020 0 0.060 0s0.065 0 0.073 0c0.17 0 0.316-0.067 0.438-0.202 0.129-0.135 0.194-0.301 0.194-0.498h0.037zM71.842 5.547h-0.037c0-0.206-0.065-0.377-0.194-0.512-0.122-0.135-0.267-0.202-0.438-0.202-0.008 0-0.032 0-0.073 0s-0.060 0-0.060 0v-0.135h0.79l0.012 0.848z">
			</path>
			<path d="M81.298 4.524l7.388 6.892 0.134 1.521-7.388-6.865-0.134-1.548zM81.371 11.969v0.808h-0.899v-0.135c0 0 0.032 0 0.097 0s0.097 0 0.097 0c0.186 0 0.344-0.063 0.474-0.188s0.194-0.287 0.194-0.485h0.037zM83.717 11.969c0.008 0.197 0.077 0.359 0.207 0.485s0.283 0.188 0.462 0.188c0 0 0.032 0 0.097 0s0.097 0 0.097 0v0.135h-0.887v-0.808h0.024zM81.298 4.524l2.418 2.84v5.412h-2.382v-6.825c0-0.458-0.024-0.808-0.073-1.050-0.048-0.251-0.073-0.377-0.073-0.377h0.109zM88.784 4.699v6.771c0 0.323 0.012 0.597 0.037 0.821 0.024 0.215 0.048 0.377 0.073 0.485s0.037 0.162 0.037 0.162h-0.109l-2.418-3.069-0.012-5.169h2.394zM88.759 5.507v-0.808h0.899v0.135c0 0-0.037 0-0.109 0-0.065 0-0.097 0-0.097 0-0.178 0-0.332 0.063-0.462 0.188s-0.198 0.287-0.207 0.485h-0.024zM86.39 5.507c0-0.197-0.065-0.359-0.195-0.485-0.121-0.126-0.275-0.188-0.462-0.188 0 0-0.036 0-0.109 0-0.065 0-0.097 0-0.097 0v-0.135h0.899v0.808h-0.036z">
			</path>
			<path d="M99.678 9.411l0.316 2.154c-0.122 0.242-0.3 0.467-0.535 0.673s-0.543 0.377-0.923 0.512c-0.373 0.126-0.838 0.188-1.397 0.188-0.956-0.009-1.782-0.175-2.479-0.498-0.688-0.323-1.219-0.794-1.592-1.413-0.373-0.628-0.559-1.396-0.559-2.302 0-0.88 0.182-1.629 0.547-2.248 0.365-0.628 0.891-1.108 1.58-1.44 0.697-0.332 1.531-0.498 2.503-0.498 0.583 0 1.102 0.049 1.556 0.148s0.818 0.211 1.094 0.337l-0.158 2.288h-0.085c-0.219-0.826-0.515-1.391-0.887-1.696-0.373-0.314-0.81-0.471-1.312-0.471-0.551 0-1 0.153-1.349 0.458-0.348 0.296-0.603 0.713-0.766 1.252-0.162 0.529-0.243 1.14-0.243 1.831 0 0.727 0.081 1.36 0.243 1.898 0.17 0.538 0.413 0.96 0.729 1.265 0.324 0.296 0.717 0.458 1.178 0.485 0.559 0 0.988-0.090 1.288-0.269 0.308-0.188 0.543-0.494 0.705-0.915 0.17-0.431 0.324-1.010 0.462-1.737h0.085z">
			</path>
			<path d="M106.3 4.699v8.077h-2.382v-8.077h2.382zM108.864 12.157l0.486 0.619h-3.074v-0.619h2.588zM108.56 8.482v0.633h-2.284v-0.633h2.284zM109.094 4.699v0.619h-2.819v-0.619h2.819zM109.714 9.949l-0.34 2.827h-2.26l0.352-0.619c0.316 0 0.615-0.085 0.899-0.256 0.292-0.179 0.547-0.431 0.766-0.754 0.219-0.332 0.377-0.731 0.474-1.198h0.109zM108.56 9.088v1.454h-0.122v-0.054c0-0.395-0.113-0.718-0.34-0.969-0.219-0.26-0.507-0.395-0.863-0.404v-0.027h1.325zM108.56 7.068v1.44h-1.325v-0.027c0.357-0.009 0.644-0.144 0.863-0.404 0.227-0.26 0.34-0.588 0.34-0.983v-0.027h0.122zM109.094 5.292v1.75h-0.121v-0.067c0-0.521-0.122-0.924-0.365-1.212s-0.595-0.435-1.057-0.444v-0.027h1.543zM109.094 4.497v0.323l-1.203-0.121c0.219 0 0.449-0.022 0.693-0.067 0.251-0.054 0.421-0.099 0.51-0.135zM103.955 11.942l-0.012 0.835h-0.79v-0.135c0 0 0.021 0 0.061 0s0.065 0 0.073 0c0.17 0 0.316-0.067 0.438-0.202 0.129-0.135 0.194-0.301 0.194-0.498h0.037zM103.955 5.547h-0.037c0-0.206-0.065-0.377-0.194-0.512-0.122-0.135-0.267-0.202-0.438-0.202-0.008 0-0.032 0-0.073 0s-0.061 0-0.061 0v-0.135h0.79l0.012 0.848z">
			</path>
			<path d="M36.477 27.118c-0.574 0-1.094-0.141-1.558-0.422-0.458-0.281-0.82-0.67-1.085-1.166-0.26-0.502-0.389-1.062-0.389-1.68s0.13-1.175 0.389-1.671c0.265-0.502 0.63-0.893 1.094-1.175s0.983-0.422 1.558-0.422c0.431 0 0.828 0.080 1.193 0.239s0.674 0.392 0.928 0.698l-0.389 0.431c-0.453-0.508-1.025-0.762-1.715-0.762-0.458 0-0.875 0.116-1.251 0.349s-0.671 0.551-0.886 0.955c-0.21 0.404-0.315 0.857-0.315 1.358s0.105 0.955 0.315 1.358c0.215 0.404 0.511 0.722 0.886 0.955s0.793 0.349 1.251 0.349c0.696 0 1.268-0.257 1.715-0.771l0.389 0.431c-0.254 0.306-0.566 0.542-0.936 0.707-0.365 0.159-0.762 0.239-1.193 0.239z">
			</path>
			<path d="M43.434 22.235l-2.179 5.406c-0.177 0.453-0.381 0.774-0.613 0.964s-0.511 0.285-0.837 0.285c-0.21 0-0.406-0.037-0.588-0.11s-0.34-0.184-0.472-0.33l0.273-0.486c0.221 0.245 0.486 0.367 0.795 0.367 0.199 0 0.367-0.061 0.505-0.184 0.144-0.122 0.276-0.33 0.398-0.624l0.191-0.468-1.947-4.819h0.613l1.64 4.103 1.64-4.103h0.58z">
			</path>
			<path d="M47.64 22.235v4.828h-0.588v-2.010c-0.503 0.245-0.997 0.367-1.483 0.367-0.525 0-0.933-0.132-1.226-0.395-0.293-0.269-0.439-0.67-0.439-1.202v-1.588h0.588v1.551c0 0.361 0.105 0.636 0.315 0.826 0.21 0.184 0.5 0.275 0.87 0.275 0.409 0 0.867-0.119 1.375-0.358v-2.295h0.588z">
			</path>
			<path d="M50.81 22.198c0.569 0 1.005 0.159 1.309 0.477 0.304 0.312 0.456 0.777 0.456 1.395v2.992h-0.564v-0.753c-0.133 0.251-0.329 0.447-0.588 0.587-0.254 0.141-0.558 0.211-0.911 0.211-0.486 0-0.873-0.128-1.16-0.386s-0.431-0.597-0.431-1.019c0-0.41 0.133-0.74 0.398-0.991 0.271-0.251 0.699-0.376 1.284-0.376h1.384v-0.294c0-0.416-0.105-0.731-0.315-0.945-0.21-0.22-0.517-0.33-0.92-0.33-0.276 0-0.541 0.052-0.795 0.156-0.254 0.098-0.472 0.236-0.654 0.413l-0.265-0.486c0.221-0.208 0.486-0.367 0.795-0.477 0.309-0.116 0.635-0.174 0.977-0.174zM50.603 26.595c0.331 0 0.616-0.083 0.853-0.248 0.237-0.171 0.414-0.416 0.53-0.734v-0.789h-1.367c-0.746 0-1.118 0.288-1.118 0.863 0 0.282 0.096 0.505 0.29 0.67 0.193 0.159 0.464 0.239 0.812 0.239z">
			</path>
			<path d="M55.963 27.109c-0.431 0-0.817-0.104-1.16-0.312-0.337-0.208-0.602-0.499-0.795-0.872-0.193-0.379-0.29-0.805-0.29-1.276s0.096-0.893 0.29-1.267 0.459-0.664 0.795-0.872c0.342-0.208 0.729-0.312 1.16-0.312 0.376 0 0.71 0.083 1.002 0.248 0.298 0.159 0.533 0.395 0.704 0.707l-0.439 0.33c-0.144-0.239-0.326-0.416-0.547-0.532-0.221-0.122-0.461-0.184-0.721-0.184-0.315 0-0.599 0.080-0.853 0.239-0.248 0.153-0.444 0.373-0.588 0.661-0.138 0.288-0.207 0.615-0.207 0.982 0 0.373 0.069 0.704 0.207 0.991 0.144 0.281 0.34 0.502 0.588 0.661 0.254 0.153 0.538 0.229 0.853 0.229 0.26 0 0.5-0.058 0.721-0.174s0.403-0.294 0.547-0.532l0.439 0.33c-0.171 0.312-0.406 0.551-0.704 0.716-0.298 0.159-0.632 0.239-1.002 0.239z">
			</path>
			<path d="M58.809 22.235h0.588v2.139h2.742v-2.139h0.588v4.828h-0.588v-2.129h-2.742v2.129h-0.588v-4.828z">
			</path>
			<path d="M65.899 22.198c0.569 0 1.005 0.159 1.309 0.477 0.304 0.312 0.456 0.777 0.456 1.395v2.992h-0.564v-0.753c-0.133 0.251-0.329 0.447-0.588 0.587-0.254 0.141-0.558 0.211-0.911 0.211-0.486 0-0.873-0.128-1.16-0.386s-0.431-0.597-0.431-1.019c0-0.41 0.133-0.74 0.398-0.991 0.271-0.251 0.698-0.376 1.284-0.376h1.384v-0.294c0-0.416-0.105-0.731-0.315-0.945-0.21-0.22-0.517-0.33-0.92-0.33-0.276 0-0.541 0.052-0.795 0.156-0.254 0.098-0.472 0.236-0.655 0.413l-0.265-0.486c0.221-0.208 0.486-0.367 0.795-0.477 0.309-0.116 0.635-0.174 0.977-0.174zM65.692 26.595c0.331 0 0.616-0.083 0.853-0.248 0.237-0.171 0.414-0.416 0.53-0.734v-0.789h-1.367c-0.746 0-1.118 0.288-1.118 0.863 0 0.282 0.096 0.505 0.29 0.67 0.193 0.159 0.464 0.239 0.812 0.239z">
			</path>
			<path d="M75.309 22.235v4.828h-0.588v-4.25h-2.734v4.25h-0.588v-4.828h3.911z">
			</path>
			<path d="M80.792 24.851h-3.645c0.033 0.502 0.207 0.909 0.522 1.221 0.314 0.306 0.712 0.459 1.193 0.459 0.271 0 0.519-0.052 0.746-0.156 0.227-0.11 0.423-0.269 0.588-0.477l0.331 0.422c-0.193 0.257-0.436 0.453-0.729 0.587-0.287 0.135-0.605 0.202-0.953 0.202-0.448 0-0.845-0.104-1.193-0.312-0.342-0.214-0.61-0.508-0.804-0.881s-0.29-0.795-0.29-1.267c0-0.471 0.091-0.893 0.273-1.267 0.188-0.373 0.442-0.664 0.762-0.872 0.326-0.208 0.691-0.312 1.094-0.312s0.765 0.104 1.085 0.312c0.32 0.208 0.571 0.499 0.754 0.872 0.182 0.367 0.273 0.789 0.273 1.267l-0.008 0.202zM78.688 22.758c-0.42 0-0.773 0.15-1.061 0.45-0.282 0.294-0.442 0.679-0.48 1.156h3.090c-0.039-0.477-0.202-0.863-0.489-1.156-0.282-0.3-0.635-0.45-1.061-0.45z">
			</path>
			<path d="M86.264 26.494v1.735h-0.555v-1.166h-3.902v1.166h-0.555v-1.735h0.248c0.293-0.018 0.492-0.257 0.597-0.716s0.177-1.101 0.215-1.927l0.058-1.615h3.215v4.259h0.679zM82.85 23.887c-0.027 0.685-0.080 1.251-0.157 1.698-0.077 0.441-0.215 0.743-0.414 0.909h2.717v-3.681h-2.096l-0.050 1.074z">
			</path>
			<path d="M87.41 22.235h0.588v4.828h-0.588v-4.828zM87.708 21.179c-0.121 0-0.224-0.046-0.306-0.138s-0.124-0.202-0.124-0.33c0-0.122 0.042-0.23 0.124-0.321s0.185-0.138 0.306-0.138c0.122 0 0.224 0.046 0.307 0.138 0.083 0.086 0.124 0.19 0.124 0.312 0 0.135-0.042 0.248-0.124 0.34s-0.185 0.138-0.307 0.138z">
			</path>
			<path d="M91.175 22.198c0.569 0 1.005 0.159 1.309 0.477 0.304 0.312 0.456 0.777 0.456 1.395v2.992h-0.563v-0.753c-0.133 0.251-0.329 0.447-0.588 0.587-0.254 0.141-0.558 0.211-0.912 0.211-0.486 0-0.873-0.128-1.16-0.386s-0.431-0.597-0.431-1.019c0-0.41 0.133-0.74 0.398-0.991 0.271-0.251 0.698-0.376 1.284-0.376h1.383v-0.294c0-0.416-0.105-0.731-0.314-0.945-0.21-0.22-0.517-0.33-0.92-0.33-0.276 0-0.541 0.052-0.795 0.156-0.254 0.098-0.472 0.236-0.655 0.413l-0.265-0.486c0.221-0.208 0.486-0.367 0.795-0.477 0.309-0.116 0.635-0.174 0.978-0.174zM90.968 26.595c0.331 0 0.616-0.083 0.853-0.248 0.237-0.171 0.414-0.416 0.53-0.734v-0.789h-1.367c-0.746 0-1.119 0.288-1.119 0.863 0 0.282 0.097 0.505 0.29 0.67 0.193 0.159 0.464 0.239 0.812 0.239z">
			</path>
			<path d="M97.571 22.813h-1.648v4.25h-0.588v-4.25h-1.649v-0.578h3.886v0.578z">
			</path>
			<path d="M100.667 22.198c0.409 0 0.779 0.104 1.11 0.312 0.331 0.202 0.591 0.489 0.778 0.863s0.282 0.799 0.282 1.276c0 0.483-0.094 0.912-0.282 1.285s-0.447 0.664-0.778 0.872c-0.326 0.202-0.696 0.303-1.11 0.303-0.353 0-0.674-0.080-0.961-0.239-0.282-0.165-0.514-0.404-0.696-0.716v2.689h-0.588v-6.608h0.563v0.955c0.177-0.318 0.409-0.563 0.696-0.734 0.293-0.171 0.621-0.257 0.986-0.257zM100.626 26.53c0.304 0 0.58-0.076 0.828-0.229 0.249-0.159 0.442-0.382 0.58-0.67 0.144-0.288 0.215-0.615 0.215-0.982s-0.072-0.691-0.215-0.973c-0.138-0.288-0.331-0.511-0.58-0.67s-0.525-0.239-0.828-0.239c-0.309 0-0.588 0.080-0.837 0.239-0.243 0.159-0.436 0.382-0.58 0.67-0.138 0.281-0.207 0.606-0.207 0.973s0.069 0.695 0.207 0.982c0.144 0.288 0.337 0.511 0.58 0.67 0.249 0.153 0.528 0.229 0.837 0.229z">
			</path>
			<path d="M104.102 22.235h0.588v4.828h-0.588v-4.828zM104.4 21.179c-0.122 0-0.224-0.046-0.307-0.138s-0.124-0.202-0.124-0.33c0-0.122 0.042-0.23 0.124-0.321s0.185-0.138 0.307-0.138c0.122 0 0.224 0.046 0.306 0.138 0.083 0.086 0.124 0.19 0.124 0.312 0 0.135-0.041 0.248-0.124 0.34s-0.185 0.138-0.306 0.138z">
			</path>
			<path d="M109.714 22.235v4.828h-0.538v-1.597h-1.533l-1.011 1.597h-0.638l1.086-1.689c-0.337-0.104-0.597-0.281-0.779-0.532s-0.273-0.569-0.273-0.955c0-0.538 0.165-0.948 0.497-1.23s0.784-0.422 1.359-0.422h1.831zM106.624 23.905c0 0.716 0.411 1.074 1.234 1.074h1.317v-2.166h-1.276c-0.851 0-1.276 0.364-1.276 1.092z">
			</path>
		</symbol>
	</defs>
</svg>
